<svg width="1156" height="361" viewBox="0 0 1156 361" fill="none" xmlns="http://www.w3.org/2000/svg">
    <path d="M131.611 205.869C131.611 178.127 112.627 160.607 75.0233 153.306C57.8643 150.021 46.9118 146.006 41.0704 141.991C35.2291 137.976 32.3084 132.136 32.3084 125.2C32.3084 108.045 45.0863 99.6492 70.6423 99.6492C95.468 99.6492 108.976 113.52 110.802 141.626C111.167 144.546 112.992 146.006 116.643 146.006C120.659 146.006 122.849 142.721 122.849 136.151V100.014C122.849 93.0789 121.024 89.7938 117.373 89.7938C113.357 89.7938 107.881 96.3641 104.23 99.2842C95.1029 93.0789 83.7853 89.7938 70.6423 89.7938C38.1497 89.7938 12.2288 104.394 12.2288 135.421C12.2288 147.831 17.3399 158.417 27.9274 166.812C40.7053 177.397 52.7531 179.588 75.7534 183.603C99.4839 188.348 111.532 198.933 111.532 215.359C111.532 236.165 98.7537 246.75 72.8328 246.75C47.6419 246.75 31.5782 229.96 24.6416 196.743C23.5464 191.998 21.721 189.443 18.4352 189.443C14.4193 189.443 12.2288 193.093 12.2288 200.028V247.115C12.2288 254.051 14.0542 257.336 17.705 257.336C18.8003 257.336 20.6257 256.241 23.5464 253.686C30.1179 247.845 27.1972 248.94 33.7687 242.37C44.3562 252.226 57.4992 257.336 72.8328 257.336C107.516 257.336 131.611 239.45 131.611 205.869Z" fill="black"/>
    <path d="M234.93 257.336C257.565 257.336 276.55 249.305 292.248 233.245C307.947 217.184 315.979 197.838 315.979 175.207C315.979 152.211 308.312 132.136 292.979 115.345C277.645 98.5542 258.296 89.7938 235.295 89.7938C212.295 89.7938 193.311 98.5542 177.612 115.345C161.913 132.136 154.247 152.211 154.247 175.207C154.247 197.838 161.913 217.184 177.612 233.245C193.311 249.305 212.66 257.336 234.93 257.336ZM235.295 245.655C217.771 245.655 204.628 237.99 195.501 222.294C189.66 212.074 186.739 195.283 186.739 172.287C186.739 150.021 189.66 133.961 195.136 123.74C203.898 108.045 217.041 100.379 234.93 100.379C252.089 100.379 265.232 108.045 274.359 123.01C280.566 133.231 283.486 149.656 283.486 172.287C283.486 214.629 271.074 245.655 235.295 245.655Z" fill="black"/>
    <path d="M379.138 252.226L419.663 253.321V239.085C406.52 239.085 398.488 238.72 395.932 237.26C393.377 235.8 392.282 231.42 392.282 224.484V2.2471e-05L338.614 4.01519V17.8858C351.392 17.8858 359.424 18.9808 361.98 21.1709C364.535 23.361 365.995 28.4712 365.995 36.8666V224.484C365.995 231.42 364.9 235.8 362.345 237.26C359.789 238.72 351.757 239.085 338.614 239.085V253.321L379.138 252.226Z" fill="black"/>
    <path d="M577.699 162.067C577.699 151.481 568.937 142.721 558.349 142.721C547.762 142.721 539 151.481 539 162.067C539 172.652 547.762 181.413 558.349 181.413C568.937 181.413 577.699 172.652 577.699 162.067Z" fill="black"/>
    <path d="M862.656 95.999H761.893C742.543 95.999 725.019 108.41 708.956 132.866C704.21 140.166 701.654 144.911 701.654 146.736C702.749 149.656 703.114 151.481 707.495 151.481C710.051 151.481 712.241 150.021 714.432 146.736C726.115 128.85 740.718 119.725 758.607 119.725H786.719L752.036 232.88C749.48 240.91 748.385 245.655 748.385 246.75C748.385 254.051 752.401 257.701 760.068 257.701C764.083 257.701 767.734 256.606 769.925 254.416C774.671 250.035 775.036 248.94 776.496 241.275L800.227 119.725H859.37C872.148 119.725 878.355 115.345 878.355 106.219C878.355 97.8241 871.783 95.999 862.656 95.999Z" fill="black"/>
    <path d="M905.459 194.008C893.844 194.008 884.81 200.459 878.357 213.363C873.453 223.427 870.872 230.395 870.872 234.266C870.872 236.589 872.162 237.879 875.002 237.879C878.615 237.879 878.873 236.331 879.906 232.46C885.842 212.072 894.102 201.75 904.685 201.75C908.04 201.75 909.847 204.072 909.847 208.718C909.847 212.847 908.556 218.782 905.717 226.266C895.909 252.847 891.005 270.653 891.005 280.202C891.005 299.815 903.136 311.428 923.011 311.428C931.529 311.428 939.53 308.331 946.757 302.137C937.723 336.202 923.527 353.234 904.168 353.234C895.393 353.234 889.456 350.396 886.359 344.718C896.683 344.202 901.845 339.299 901.845 330.008C901.845 323.557 898.49 320.202 891.521 320.202C881.971 320.202 876.292 328.202 876.292 337.75C876.292 351.944 889.198 360.976 904.168 360.976C933.852 360.976 958.114 333.621 964.567 308.331L988.83 210.782C989.604 207.943 989.863 205.879 989.863 204.588C989.863 199.427 987.023 196.847 981.603 196.847C977.473 196.847 974.118 198.911 971.795 202.782C970.246 208.201 968.955 212.847 968.181 216.718L951.662 283.04C949.08 292.331 935.4 303.944 923.785 303.944C913.977 303.944 909.073 297.492 909.073 284.331C909.073 273.492 913.461 256.976 921.978 234.782C925.334 225.75 927.141 219.556 927.141 215.943C927.141 203.298 918.107 194.008 905.459 194.008Z" fill="black"/>
    <path d="M1125.89 211.814C1125.89 199.943 1114.27 194.008 1101.37 194.008C1090.27 194.008 1081.49 199.943 1074.78 211.814C1069.36 199.943 1060.33 194.008 1047.16 194.008C1034.52 194.008 1024.19 199.943 1015.93 211.556C1008.96 221.621 1005.35 229.105 1005.35 234.008C1005.35 236.331 1006.64 237.621 1009.22 237.621C1011.54 237.621 1013.09 236.331 1013.61 234.008C1018.51 219.04 1029.35 201.492 1046.65 201.492C1055.17 201.492 1059.3 206.911 1059.3 217.492C1059.3 222.911 1054.65 243.04 1045.62 277.621C1041.23 294.911 1033.48 303.428 1022.38 303.428C1018.77 303.428 1015.42 302.653 1012.58 301.363C1019.29 298.782 1022.64 294.137 1022.64 287.428C1022.64 280.718 1019.29 277.363 1012.32 277.363C1003.8 277.363 997.348 284.589 997.348 293.105C997.348 304.976 1009.48 310.912 1022.13 310.912C1032.97 310.912 1041.74 304.976 1048.71 293.105C1053.62 304.976 1062.91 310.912 1076.33 310.912C1088.72 310.912 1099.05 304.976 1107.3 293.363C1114.27 283.299 1117.89 275.815 1117.89 270.911C1117.89 268.589 1116.6 267.298 1114.02 267.298C1111.69 267.298 1110.4 268.589 1109.63 270.911C1105.24 285.621 1093.62 303.428 1076.85 303.428C1068.33 303.428 1063.94 298.266 1063.94 287.686C1063.94 284.331 1065.23 277.105 1068.07 265.492L1076.85 230.653C1081.75 211.298 1089.75 201.492 1101.11 201.492C1104.72 201.492 1108.08 202.266 1110.92 203.556C1103.95 205.879 1100.59 210.524 1100.59 217.492C1100.59 224.201 1104.21 227.556 1111.18 227.556C1119.44 227.556 1125.89 220.072 1125.89 211.814Z" fill="black"/>
</svg>
